<svg id="svg9812" xmlns="http://www.w3.org/2000/svg" viewBox="0 0 60 60"><defs><style>.cls-1{fill:#1e1d1e;}.cls-2{fill:#553d16;}.cls-3{fill:#1e8a77;}.cls-4{fill:#382810;}.cls-5{fill:#74541d;}.cls-6{fill:#1e160a;}.cls-7{fill:#156355;}.cls-8{fill:#585858;}.cls-9{fill:#848484;}.cls-10{fill:#343434;}.cls-11{fill:#2bc7ac;}.cls-12{fill:#33ebcb;}</style></defs><g id="layer1"><g id="g15957"><rect id="rect15540" class="cls-1" y="56.25" width="3.75" height="3.75"/><rect id="rect15542" class="cls-1" x="3.75" y="56.25" width="3.75" height="3.75"/><rect id="rect15544" class="cls-1" x="7.5" y="56.25" width="3.75" height="3.75"/><rect id="rect15546" class="cls-1" y="52.5" width="3.75" height="3.75"/><rect id="rect15548" class="cls-1" y="48.75" width="3.75" height="3.75"/><rect id="rect15550" class="cls-1" x="7.5" y="52.5" width="3.75" height="3.75"/><rect id="rect15552" class="cls-2" x="7.5" y="48.75" width="3.75" height="3.75"/><rect id="rect15554" class="cls-1" x="3.75" y="48.75" width="3.75" height="3.75"/><rect id="rect15556" class="cls-3" x="3.75" y="52.5" width="3.75" height="3.75"/><rect id="rect15558" class="cls-4" x="7.5" y="45" width="3.75" height="3.75"/><rect id="rect15560" class="cls-5" x="11.25" y="45" width="3.75" height="3.75"/><rect id="rect15562" class="cls-6" x="11.25" y="48.75" width="3.75" height="3.75"/><rect id="rect15564" class="cls-6" x="15" y="45" width="3.75" height="3.75"/><rect id="rect15566" class="cls-2" x="15" y="41.25" width="3.75" height="3.75"/><rect id="rect15568" class="cls-4" x="11.25" y="41.25" width="3.75" height="3.75"/><rect id="rect15570" class="cls-2" x="18.75" y="41.25" width="3.75" height="3.75"/><rect id="rect15572" class="cls-1" x="15" y="37.5" width="3.75" height="3.75"/><rect id="rect15574" class="cls-1" x="22.5" y="45" width="3.75" height="3.75"/><rect id="rect15576" class="cls-1" x="26.25" y="45" width="3.75" height="3.75"/><rect id="rect15578" class="cls-7" x="30" y="45" width="3.75" height="3.75"/><rect id="rect15580" class="cls-1" x="33.75" y="45" width="3.75" height="3.75"/><rect id="rect15582" class="cls-1" x="30" y="48.75" width="3.75" height="3.75"/><rect id="rect15584" class="cls-1" x="33.75" y="48.75" width="3.75" height="3.75"/><rect id="rect15586" class="cls-1" x="30" y="41.25" width="3.75" height="3.75"/><rect id="rect15588" class="cls-8" x="18.75" y="41.25" width="3.75" height="3.75"/><rect id="rect15590" class="cls-2" x="18.75" y="41.25" width="3.75" height="3.75"/><rect id="rect15592" class="cls-2" x="18.75" y="41.25" width="3.75" height="3.75"/><rect id="rect15594" class="cls-2" x="18.75" y="41.25" width="3.75" height="3.75"/><rect id="rect15596" class="cls-2" x="18.75" y="41.25" width="3.75" height="3.75"/><rect id="rect15598" class="cls-2" x="18.75" y="41.25" width="3.75" height="3.75"/><rect id="rect15600" class="cls-2" x="18.75" y="41.25" width="3.75" height="3.75"/><rect id="rect15602" class="cls-2" x="18.75" y="41.25" width="3.75" height="3.75"/><rect id="rect15604" class="cls-2" x="18.75" y="41.25" width="3.75" height="3.75"/><rect id="rect15606" class="cls-9" x="18.75" y="41.25" width="3.75" height="3.75"/><rect id="rect15608" class="cls-2" x="18.75" y="41.25" width="3.75" height="3.75"/><rect id="rect15610" class="cls-2" x="18.75" y="41.25" width="3.75" height="3.75"/><rect id="rect15612" class="cls-2" x="18.75" y="41.25" width="3.75" height="3.75"/><rect id="rect15614" class="cls-2" x="18.75" y="41.25" width="3.75" height="3.75"/><rect id="rect15616" class="cls-2" x="18.75" y="41.25" width="3.75" height="3.75"/><rect id="rect15618" class="cls-2" x="18.75" y="41.25" width="3.75" height="3.75"/><rect id="rect15620" class="cls-6" x="18.75" y="41.25" width="3.75" height="3.75"/><rect id="rect15622" class="cls-1" x="26.25" y="37.5" width="3.75" height="3.75"/><rect id="rect15624" class="cls-10" x="30" y="33.75" width="3.75" height="3.75"/><rect id="rect15626" class="cls-10" x="33.75" y="30" width="3.75" height="3.75"/><rect id="rect15628" class="cls-10" x="37.5" y="26.25" width="3.75" height="3.75"/><rect id="rect15630" class="cls-10" x="41.25" y="22.5" width="3.75" height="3.75"/><rect id="rect15632" class="cls-10" x="45" y="18.75" width="3.75" height="3.75"/><rect id="rect15634" class="cls-10" x="48.75" y="15" width="3.75" height="3.75"/><rect id="rect15636" class="cls-10" x="52.5" y="11.25" width="3.75" height="3.75"/><rect id="rect15638" class="cls-10" x="56.25" y="7.5" width="3.75" height="3.75"/><rect id="rect15640" class="cls-10" x="56.25" y="3.75" width="3.75" height="3.75"/><rect id="rect15642" class="cls-10" x="56.25" width="3.75" height="3.75"/><rect id="rect15644" class="cls-10" x="52.5" width="3.75" height="3.75"/><rect id="rect15646" class="cls-10" x="48.75" width="3.75" height="3.75"/><rect id="rect15648" class="cls-10" x="45" y="3.75" width="3.75" height="3.75"/><rect id="rect15650" class="cls-10" x="41.25" y="7.5" width="3.75" height="3.75"/><rect id="rect15652" class="cls-10" x="37.5" y="11.25" width="3.75" height="3.75"/><rect id="rect15654" class="cls-10" x="33.75" y="15" width="3.75" height="3.75"/><rect id="rect15656" class="cls-10" x="30" y="18.75" width="3.75" height="3.75"/><rect id="rect15658" class="cls-10" x="26.25" y="22.5" width="3.75" height="3.75"/><rect id="rect15660" class="cls-10" x="22.5" y="26.25" width="3.75" height="3.75"/><rect id="rect15662" class="cls-1" x="15" y="26.25" width="3.75" height="3.75"/><rect id="rect15664" class="cls-1" x="18.75" y="30" width="3.75" height="3.75"/><rect id="rect15666" class="cls-1" x="11.25" y="22.5" width="3.75" height="3.75"/><rect id="rect15668" class="cls-1" x="7.5" y="22.5" width="3.75" height="3.75"/><rect id="rect15670" class="cls-1" x="7.5" y="26.25" width="3.75" height="3.75"/><rect id="rect15672" class="cls-1" x="11.25" y="30" width="3.75" height="3.75"/><rect id="rect15674" class="cls-1" x="11.25" y="33.75" width="3.75" height="3.75"/><rect id="rect15676" class="cls-3" x="15" y="33.75" width="3.75" height="3.75"/><rect id="rect15678" class="cls-1" x="18.75" y="33.75" width="3.75" height="3.75"/><rect id="rect15680" class="cls-11" x="22.5" y="33.75" width="3.75" height="3.75"/><rect id="rect15682" class="cls-3" x="18.75" y="37.5" width="3.75" height="3.75"/><rect id="rect15684" class="cls-1" x="22.5" y="37.5" width="3.75" height="3.75"/><rect id="rect15686" class="cls-3" x="15" y="30" width="3.75" height="3.75"/><rect id="rect15688" class="cls-7" x="11.25" y="26.25" width="3.75" height="3.75"/><rect id="rect15690" class="cls-12" x="22.5" y="30" width="3.75" height="3.75"/><rect id="rect15692" class="cls-11" x="26.25" y="30" width="3.75" height="3.75"/><rect id="rect15694" class="cls-12" x="26.25" y="33.75" width="3.75" height="3.75"/><rect id="rect15696" class="cls-12" x="30" y="30" width="3.75" height="3.75"/><rect id="rect15698" class="cls-12" x="26.25" y="26.25" width="3.75" height="3.75"/><rect id="rect15700" class="cls-11" x="30" y="26.25" width="3.75" height="3.75"/><rect id="rect15702" class="cls-12" x="33.75" y="26.25" width="3.75" height="3.75"/><rect id="rect15704" class="cls-11" x="33.75" y="22.5" width="3.75" height="3.75"/><rect id="rect15706" class="cls-12" x="30" y="22.5" width="3.75" height="3.75"/><rect id="rect15708" class="cls-12" x="37.5" y="22.5" width="3.75" height="3.75"/><rect id="rect15710" class="cls-12" x="41.25" y="18.75" width="3.75" height="3.75"/><rect id="rect15712" class="cls-12" x="33.75" y="18.75" width="3.75" height="3.75"/><rect id="rect15714" class="cls-11" x="37.5" y="18.75" width="3.75" height="3.75"/><rect id="rect15716" class="cls-12" x="45" y="15" width="3.75" height="3.75"/><rect id="rect15718" class="cls-12" x="37.5" y="15" width="3.75" height="3.75"/><rect id="rect15720" class="cls-11" x="41.25" y="15" width="3.75" height="3.75"/><rect id="rect15722" class="cls-12" x="48.75" y="11.25" width="3.75" height="3.75"/><rect id="rect15724" class="cls-12" x="41.25" y="11.25" width="3.75" height="3.75"/><rect id="rect15726" class="cls-11" x="45" y="11.25" width="3.75" height="3.75"/><rect id="rect15728" class="cls-12" x="52.5" y="7.5" width="3.75" height="3.75"/><rect id="rect15730" class="cls-12" x="45" y="7.5" width="3.75" height="3.75"/><rect id="rect15732" class="cls-11" x="48.75" y="7.5" width="3.75" height="3.75"/><rect id="rect15734" class="cls-12" x="48.75" y="3.75" width="3.75" height="3.75"/><rect id="rect15736" class="cls-11" x="52.5" y="3.75" width="3.75" height="3.75"/><rect id="rect15738" class="cls-3" x="22.5" y="41.25" width="3.75" height="3.75"/><rect id="rect15740" class="cls-7" x="26.25" y="41.25" width="3.75" height="3.75"/></g></g></svg>